<svg xmlns="http://www.w3.org/2000/svg" width="20.094" height="20.094" viewBox="0 0 20.094 20.094">
  <g id="group" transform="translate(-0.001)">
    <g id="Group_1182" data-name="Group 1182" transform="translate(0.001)">
      <path id="Path_2135" data-name="Path 2135" d="M10.048,0A10.047,10.047,0,1,0,20.1,10.047,10.047,10.047,0,0,0,10.048,0ZM2.729,13.832c0-3.139,2.756-3.138,3.368-3.959l.07-.374A3,3,0,0,1,4.7,6.785a2.689,2.689,0,0,1,2.35-2.93,2.448,2.448,0,0,1,2.213,1.95A3.578,3.578,0,0,0,7,9.3a3.893,3.893,0,0,0,1.2,2.888c-.12.061-.253.124-.368.178A5.163,5.163,0,0,0,5.8,13.832H2.729Zm7.349,2.519H5.726c0-3.139,2.756-3.138,3.368-3.958l.07-.374A3,3,0,0,1,7.7,9.3a2.689,2.689,0,0,1,2.35-2.93A2.689,2.689,0,0,1,12.4,9.3a3.01,3.01,0,0,1-1.444,2.7l.08.425c.671.781,3.336.832,3.336,3.917H10.079Zm4.22-2.519h0a5.166,5.166,0,0,0-2.039-1.461c-.118-.056-.25-.117-.367-.178a3.9,3.9,0,0,0,1.2-2.889,3.577,3.577,0,0,0-2.261-3.5,2.448,2.448,0,0,1,2.213-1.951,2.688,2.688,0,0,1,2.35,2.93,3.01,3.01,0,0,1-1.444,2.7l.08.425c.671.781,3.336.832,3.336,3.918H14.3Z" transform="translate(-0.001)" fill="rgba(0,0,0,0.7)"/>
    </g>
  </g>
</svg>
