<svg xmlns="http://www.w3.org/2000/svg" width="21.667" height="21.667" viewBox="0 0 21.667 21.667">
  <path id="Path_2124" data-name="Path 2124" d="M21.032,1.564h-2.78q.015-.462.016-.929A.635.635,0,0,0,17.632,0H4.034A.635.635,0,0,0,3.4.635q0,.467.016.929H.635A.635.635,0,0,0,0,2.2,13.758,13.758,0,0,0,2.093,9.755a6.623,6.623,0,0,0,5.031,3.267A6.519,6.519,0,0,0,8.5,14.176V17H7.434A2.337,2.337,0,0,0,5.1,19.332V20.4H5.054a.635.635,0,0,0,0,1.27H16.612a.635.635,0,0,0,0-1.27h-.045V19.332A2.337,2.337,0,0,0,14.233,17H13.168V14.176a6.518,6.518,0,0,0,1.374-1.154,6.623,6.623,0,0,0,5.031-3.267A13.758,13.758,0,0,0,21.667,2.2.635.635,0,0,0,21.032,1.564ZM3.15,9.051A12.234,12.234,0,0,1,1.283,2.833h2.2a21.212,21.212,0,0,0,1.972,7.7q.254.508.53.96A6.122,6.122,0,0,1,3.15,9.051Zm15.367,0a6.122,6.122,0,0,1-2.838,2.442q.276-.452.53-.96a21.216,21.216,0,0,0,1.972-7.7h2.2A12.234,12.234,0,0,1,18.517,9.051Zm0,0" fill="#727272"/>
</svg>
