<svg xmlns="http://www.w3.org/2000/svg" width="24.314" height="26" viewBox="0 0 24.314 26">
  <g id="management" transform="translate(-9.63)">
    <path id="Path_2150" data-name="Path 2150" d="M18.647,137.972l.6-.348a.513.513,0,0,0,.188-.7L18.3,134.947a.513.513,0,0,0-.7-.188l-.6.348a.512.512,0,0,1-.77-.445v-.7a.513.513,0,0,0-.513-.513H13.427a.513.513,0,0,0-.513.513v.7a.512.512,0,0,1-.77.445l-.6-.348a.513.513,0,0,0-.7.188L9.7,136.923a.513.513,0,0,0,.188.7l.6.348a.513.513,0,0,1,0,.889l-.6.348a.513.513,0,0,0-.188.7l1.141,1.977a.513.513,0,0,0,.7.188l.6-.348a.512.512,0,0,1,.77.445v.7a.513.513,0,0,0,.513.513H15.71a.513.513,0,0,0,.513-.513v-.7a.512.512,0,0,1,.77-.445l.6.348a.513.513,0,0,0,.7-.188l1.141-1.977a.513.513,0,0,0-.188-.7l-.6-.348A.513.513,0,0,1,18.647,137.972Zm-4.079,1.967a1.523,1.523,0,1,1,1.523-1.523,1.523,1.523,0,0,1-1.523,1.523Z" transform="translate(0 -121.77)" fill="#727272"/>
    <path id="Path_2151" data-name="Path 2151" d="M19.3,21.507a.7.7,0,0,0-1,1l1.26,1.26a9.3,9.3,0,0,0-8.783,8.448l.1-.181a1.679,1.679,0,0,1,1.451-.837h.038a7.89,7.89,0,0,1,7.162-6.017L18.3,26.41a.7.7,0,0,0,1,1l2.452-2.452a.705.705,0,0,0,0-1Z" transform="translate(-1.045 -19.436)" fill="#727272"/>
    <path id="Path_2152" data-name="Path 2152" d="M180.279,5.678a2.839,2.839,0,1,0-2.839-2.839A2.842,2.842,0,0,0,180.279,5.678Z" transform="translate(-153.119)" fill="#727272"/>
    <path id="Path_2153" data-name="Path 2153" d="M157.746,84.125v-3.9a2.5,2.5,0,0,0-1.721-2.374l0,0-1.5-.249a.252.252,0,0,0-.31.154l-1.7,4.675a.308.308,0,0,1-.578,0l-1.7-4.675a.252.252,0,0,0-.236-.166c-.024,0-1.576.259-1.576.259a2.515,2.515,0,0,0-1.727,2.389v3.89a1.055,1.055,0,0,0,1.055,1.055h8.95A1.055,1.055,0,0,0,157.746,84.125Z" transform="translate(-125.057 -70.794)" fill="#727272"/>
    <path id="Path_2154" data-name="Path 2154" d="M170.467,162.933a1.517,1.517,0,0,1-1.528,1.359,7.889,7.889,0,0,1-7.264,6.5l1.231-1.231a.705.705,0,0,0-1-1l-2.451,2.452a.7.7,0,0,0,0,1l2.451,2.451a.7.7,0,0,0,1-1l-1.26-1.26a9.3,9.3,0,0,0,8.821-9.273Z" transform="translate(-136.523 -148.67)" fill="#727272"/>
    <path id="Path_2155" data-name="Path 2155" d="M203.11,75.988a.348.348,0,0,0-.258-.107h-.722a.349.349,0,0,0-.258.107.335.335,0,0,0-.044.394l.386.582-.181,1.524.356.946a.109.109,0,0,0,.2,0l.356-.946-.181-1.524.386-.582A.335.335,0,0,0,203.11,75.988Z" transform="translate(-175.332 -69.238)" fill="#727272"/>
  </g>
</svg>
