<svg xmlns="http://www.w3.org/2000/svg" width="23.282" height="32.248" viewBox="0 0 23.282 32.248">
  <g id="question-sign" transform="translate(-50.804)">
    <g id="Group_1218" data-name="Group 1218" transform="translate(50.804 0)">
      <path id="Path_2206" data-name="Path 2206" d="M140.107,274.074h-6.047a1.034,1.034,0,0,0-1.008,1.008v6.047a1.033,1.033,0,0,0,1.008,1.008h6.047a1.034,1.034,0,0,0,1.008-1.008v-6.047a1.035,1.035,0,0,0-1.008-1.008Z" transform="translate(-125.795 -249.888)"/>
      <path id="Path_2207" data-name="Path 2207" d="M73.053,6.085a10.445,10.445,0,0,0-2.671-3.213A13.657,13.657,0,0,0,66.7.781,11.292,11.292,0,0,0,62.647,0a12.869,12.869,0,0,0-11.69,6.7.994.994,0,0,0-.139.705.98.98,0,0,0,.391.63l4.132,3.15a1.207,1.207,0,0,0,.63.2.98.98,0,0,0,.781-.4,17.185,17.185,0,0,1,2.7-2.9,4.763,4.763,0,0,1,2.721-.73,4.664,4.664,0,0,1,2.708.806,2.277,2.277,0,0,1,1.171,1.865,2.829,2.829,0,0,1-.63,1.915A6.212,6.212,0,0,1,63.3,13.353a10.64,10.64,0,0,0-3.6,2.734,5.869,5.869,0,0,0-1.638,3.943v1.134a1.891,1.891,0,0,0,.264.945.757.757,0,0,0,.643.466h6.047a.877.877,0,0,0,.705-.391,1.318,1.318,0,0,0,.3-.818,3.432,3.432,0,0,1,.692-1.688,4.939,4.939,0,0,1,1.726-1.638q.982-.554,1.536-.894a12.762,12.762,0,0,0,1.449-1.1,7.247,7.247,0,0,0,1.385-1.5,8.508,8.508,0,0,0,1.273-4.472A8.254,8.254,0,0,0,73.053,6.085Z" transform="translate(-50.804 0)"/>
    </g>
  </g>
</svg>
