<svg id="Group_1204" data-name="Group 1204" xmlns="http://www.w3.org/2000/svg" width="16" height="19.505" viewBox="0 0 16 19.505">
  <path id="Path_2191" data-name="Path 2191" d="M61.619,2.286a1.907,1.907,0,0,1-1.9-1.9A.381.381,0,0,0,59.333,0H48.667a.381.381,0,0,0-.381.381,1.907,1.907,0,0,1-1.9,1.9A.381.381,0,0,0,46,2.667V8.883a11.065,11.065,0,0,0,7.891,10.605.381.381,0,0,0,.219,0A11.067,11.067,0,0,0,62,8.883V2.667A.381.381,0,0,0,61.619,2.286Zm-.381,6.6A10.245,10.245,0,0,1,54,18.725a10.3,10.3,0,0,1-7.238-9.842V3.02A2.673,2.673,0,0,0,49.021.762H58.98A2.673,2.673,0,0,0,61.238,3.02Z" transform="translate(-46)" fill="rgba(0,0,0,0.7)"/>
</svg>
